<mxfile host="app.diagrams.net" agent="Mozilla/5.0 (Windows NT 10.0; Win64; x64) AppleWebKit/537.36 (KHTML, like Gecko) Chrome/133.0.0.0 Safari/537.36" version="26.1.0">
  <diagram name="Page-1" id="PLd9f5Rztpy_VgBn_c7P">
    <mxGraphModel dx="2015" dy="1346" grid="1" gridSize="10" guides="1" tooltips="1" connect="1" arrows="1" fold="1" page="0" pageScale="1" pageWidth="850" pageHeight="1100" math="0" shadow="0">
      <root>
        <mxCell id="0" />
        <mxCell id="1" parent="0" />
        <mxCell id="alKvm9vHWeU27IcKmRVJ-32" style="edgeStyle=none;curved=1;rounded=0;orthogonalLoop=1;jettySize=auto;html=1;exitX=1;exitY=0.5;exitDx=0;exitDy=0;entryX=0;entryY=0.5;entryDx=0;entryDy=0;fontSize=12;startSize=8;endSize=8;" edge="1" parent="1" source="alKvm9vHWeU27IcKmRVJ-1" target="alKvm9vHWeU27IcKmRVJ-9">
          <mxGeometry relative="1" as="geometry" />
        </mxCell>
        <mxCell id="alKvm9vHWeU27IcKmRVJ-1" value="&lt;div style=&quot;font-family: Consolas, &amp;quot;Courier New&amp;quot;, monospace; font-size: 14px; line-height: 19px; white-space: pre;&quot;&gt;&lt;span style=&quot;background-color: light-dark(#ffffff, var(--ge-dark-color, #121212));&quot;&gt;&lt;font&gt;/check_status/&amp;lt;uuid:request_id&amp;gt;&lt;/font&gt;&lt;/span&gt;&lt;/div&gt;&lt;div style=&quot;font-family: Consolas, &amp;quot;Courier New&amp;quot;, monospace; font-size: 14px; line-height: 19px; white-space: pre;&quot;&gt;&lt;span style=&quot;background-color: light-dark(#ffffff, var(--ge-dark-color, #121212));&quot;&gt;&lt;font&gt;GET&lt;/font&gt;&lt;/span&gt;&lt;/div&gt;" style="rounded=1;whiteSpace=wrap;html=1;" vertex="1" parent="1">
          <mxGeometry x="-90" y="-80" width="240" height="60" as="geometry" />
        </mxCell>
        <mxCell id="alKvm9vHWeU27IcKmRVJ-7" style="edgeStyle=none;curved=1;rounded=0;orthogonalLoop=1;jettySize=auto;html=1;exitX=1;exitY=0.5;exitDx=0;exitDy=0;entryX=0;entryY=0.25;entryDx=0;entryDy=0;fontSize=12;startSize=8;endSize=8;" edge="1" parent="1" source="alKvm9vHWeU27IcKmRVJ-2" target="alKvm9vHWeU27IcKmRVJ-3">
          <mxGeometry relative="1" as="geometry" />
        </mxCell>
        <mxCell id="alKvm9vHWeU27IcKmRVJ-2" value="/upload&lt;div&gt;POST&lt;/div&gt;" style="rounded=1;whiteSpace=wrap;html=1;" vertex="1" parent="1">
          <mxGeometry x="-80" y="320" width="250" height="60" as="geometry" />
        </mxCell>
        <mxCell id="alKvm9vHWeU27IcKmRVJ-3" value="Validate CSV file&lt;div&gt;returns Unique ID&lt;br&gt;&lt;div&gt;&lt;br&gt;&lt;/div&gt;&lt;div&gt;&lt;br&gt;&lt;/div&gt;&lt;div&gt;Start the threading process&lt;/div&gt;&lt;div&gt;&lt;br&gt;&lt;/div&gt;&lt;div&gt;1. Store original image&amp;nbsp;&lt;/div&gt;&lt;div&gt;2. store the compressed image 50% of original size&lt;/div&gt;&lt;div&gt;3. update the database status&lt;/div&gt;&lt;div&gt;&lt;br&gt;&lt;/div&gt;&lt;/div&gt;" style="rounded=1;whiteSpace=wrap;html=1;" vertex="1" parent="1">
          <mxGeometry x="480" y="230" width="230" height="200" as="geometry" />
        </mxCell>
        <mxCell id="alKvm9vHWeU27IcKmRVJ-17" style="edgeStyle=none;curved=1;rounded=0;orthogonalLoop=1;jettySize=auto;html=1;exitX=0.5;exitY=0;exitDx=0;exitDy=0;fontSize=12;startSize=8;endSize=8;" edge="1" parent="1" source="alKvm9vHWeU27IcKmRVJ-5" target="alKvm9vHWeU27IcKmRVJ-9">
          <mxGeometry relative="1" as="geometry">
            <Array as="points">
              <mxPoint x="120" y="20" />
            </Array>
          </mxGeometry>
        </mxCell>
        <mxCell id="alKvm9vHWeU27IcKmRVJ-5" value="&lt;div style=&quot;font-family: Consolas, &amp;quot;Courier New&amp;quot;, monospace; font-size: 14px; line-height: 19px; white-space: pre;&quot;&gt;&lt;span&gt;&lt;font style=&quot;color: rgb(1, 1, 1);&quot;&gt;/download_csv/&amp;lt;uuid:request_id&amp;gt;&lt;/font&gt;&lt;/span&gt;&lt;/div&gt;" style="rounded=1;whiteSpace=wrap;html=1;" vertex="1" parent="1">
          <mxGeometry x="-10" y="150" width="260" height="60" as="geometry" />
        </mxCell>
        <mxCell id="alKvm9vHWeU27IcKmRVJ-15" style="edgeStyle=none;curved=1;rounded=0;orthogonalLoop=1;jettySize=auto;html=1;exitX=0.5;exitY=1;exitDx=0;exitDy=0;entryX=0.5;entryY=1;entryDx=0;entryDy=0;fontSize=12;startSize=8;endSize=8;" edge="1" parent="1" source="alKvm9vHWeU27IcKmRVJ-9" target="alKvm9vHWeU27IcKmRVJ-5">
          <mxGeometry relative="1" as="geometry">
            <Array as="points">
              <mxPoint x="320" y="280" />
            </Array>
          </mxGeometry>
        </mxCell>
        <mxCell id="alKvm9vHWeU27IcKmRVJ-9" value="PgAdmin&lt;div&gt;&lt;br&gt;&lt;/div&gt;&lt;div&gt;&lt;div style=&quot;color: rgb(212, 212, 212); background-color: rgb(30, 30, 30); font-family: Consolas, &amp;quot;Courier New&amp;quot;, monospace; font-size: 14px; line-height: 19px; white-space: pre;&quot;&gt;&lt;span style=&quot;color: rgb(206, 145, 120);&quot;&gt;TABLE - requests&lt;/span&gt;&lt;/div&gt;&lt;div style=&quot;color: rgb(212, 212, 212); background-color: rgb(30, 30, 30); font-family: Consolas, &amp;quot;Courier New&amp;quot;, monospace; font-size: 14px; line-height: 19px; white-space: pre;&quot;&gt;&lt;span style=&quot;background-color: light-dark(rgb(30, 30, 30), rgb(211, 211, 211)); color: light-dark(rgb(206, 145, 120), rgb(145, 93, 71));&quot;&gt;&lt;br&gt;&lt;/span&gt;&lt;/div&gt;&lt;div style=&quot;color: rgb(212, 212, 212); background-color: rgb(30, 30, 30); font-family: Consolas, &amp;quot;Courier New&amp;quot;, monospace; font-size: 14px; line-height: 19px; white-space: pre;&quot;&gt;&lt;span style=&quot;background-color: light-dark(rgb(30, 30, 30), rgb(211, 211, 211)); color: light-dark(rgb(206, 145, 120), rgb(145, 93, 71));&quot;&gt;TABLE - image&lt;/span&gt;&lt;/div&gt;&lt;/div&gt;" style="rounded=1;whiteSpace=wrap;html=1;" vertex="1" parent="1">
          <mxGeometry x="440" y="-50" width="190" height="160" as="geometry" />
        </mxCell>
        <mxCell id="alKvm9vHWeU27IcKmRVJ-27" style="edgeStyle=none;curved=1;rounded=0;orthogonalLoop=1;jettySize=auto;html=1;entryX=1;entryY=0.25;entryDx=0;entryDy=0;fontSize=12;startSize=8;endSize=8;" edge="1" parent="1" source="alKvm9vHWeU27IcKmRVJ-11" target="alKvm9vHWeU27IcKmRVJ-3">
          <mxGeometry relative="1" as="geometry" />
        </mxCell>
        <mxCell id="alKvm9vHWeU27IcKmRVJ-11" value="AZURE BLOB container names&lt;div&gt;&lt;br&gt;&lt;/div&gt;&lt;div&gt;&lt;br&gt;&lt;div&gt;compressedimages&lt;/div&gt;&lt;div&gt;&lt;br&gt;&lt;/div&gt;&lt;div&gt;originalimages&lt;/div&gt;&lt;div&gt;&lt;br&gt;&lt;/div&gt;&lt;/div&gt;" style="rounded=1;whiteSpace=wrap;html=1;" vertex="1" parent="1">
          <mxGeometry x="940" y="180" width="150" height="200" as="geometry" />
        </mxCell>
        <mxCell id="alKvm9vHWeU27IcKmRVJ-13" style="edgeStyle=none;curved=1;rounded=0;orthogonalLoop=1;jettySize=auto;html=1;exitX=0.5;exitY=0;exitDx=0;exitDy=0;entryX=0.668;entryY=0.997;entryDx=0;entryDy=0;entryPerimeter=0;fontSize=12;startSize=8;endSize=8;" edge="1" parent="1" source="alKvm9vHWeU27IcKmRVJ-3" target="alKvm9vHWeU27IcKmRVJ-9">
          <mxGeometry relative="1" as="geometry" />
        </mxCell>
        <mxCell id="alKvm9vHWeU27IcKmRVJ-16" style="edgeStyle=none;curved=1;rounded=0;orthogonalLoop=1;jettySize=auto;html=1;exitX=1;exitY=0.5;exitDx=0;exitDy=0;entryX=0.536;entryY=1.008;entryDx=0;entryDy=0;entryPerimeter=0;fontSize=12;startSize=8;endSize=8;" edge="1" parent="1" source="alKvm9vHWeU27IcKmRVJ-3" target="alKvm9vHWeU27IcKmRVJ-11">
          <mxGeometry relative="1" as="geometry">
            <Array as="points">
              <mxPoint x="920" y="425" />
            </Array>
          </mxGeometry>
        </mxCell>
        <mxCell id="alKvm9vHWeU27IcKmRVJ-18" style="edgeStyle=none;curved=1;rounded=0;orthogonalLoop=1;jettySize=auto;html=1;exitX=0;exitY=0.5;exitDx=0;exitDy=0;fontSize=12;startSize=8;endSize=8;" edge="1" parent="1" source="alKvm9vHWeU27IcKmRVJ-3" target="alKvm9vHWeU27IcKmRVJ-2">
          <mxGeometry relative="1" as="geometry">
            <Array as="points">
              <mxPoint x="190" y="560" />
            </Array>
          </mxGeometry>
        </mxCell>
        <mxCell id="alKvm9vHWeU27IcKmRVJ-19" value="CSV" style="text;strokeColor=none;fillColor=none;html=1;align=center;verticalAlign=middle;whiteSpace=wrap;rounded=0;fontSize=16;" vertex="1" parent="1">
          <mxGeometry x="230" y="300" width="60" height="30" as="geometry" />
        </mxCell>
        <mxCell id="alKvm9vHWeU27IcKmRVJ-22" value="UNIQUE ID" style="text;strokeColor=none;fillColor=none;html=1;align=center;verticalAlign=middle;whiteSpace=wrap;rounded=0;fontSize=16;" vertex="1" parent="1">
          <mxGeometry x="170" y="430" width="90" height="30" as="geometry" />
        </mxCell>
        <mxCell id="alKvm9vHWeU27IcKmRVJ-23" value="SQL QUERY" style="text;strokeColor=none;fillColor=none;html=1;align=center;verticalAlign=middle;whiteSpace=wrap;rounded=0;fontSize=16;" vertex="1" parent="1">
          <mxGeometry x="170" y="40" width="130" height="30" as="geometry" />
        </mxCell>
        <mxCell id="alKvm9vHWeU27IcKmRVJ-26" value="UPDATE DATABASE" style="text;strokeColor=none;fillColor=none;html=1;align=center;verticalAlign=middle;whiteSpace=wrap;rounded=0;fontSize=16;" vertex="1" parent="1">
          <mxGeometry x="500" y="160" width="160" height="30" as="geometry" />
        </mxCell>
        <mxCell id="alKvm9vHWeU27IcKmRVJ-28" value="COMPRESSED URL" style="text;strokeColor=none;fillColor=none;html=1;align=center;verticalAlign=middle;whiteSpace=wrap;rounded=0;fontSize=16;" vertex="1" parent="1">
          <mxGeometry x="740" y="240" width="160" height="30" as="geometry" />
        </mxCell>
        <mxCell id="alKvm9vHWeU27IcKmRVJ-30" value="UPLOAD DATA" style="text;strokeColor=none;fillColor=none;html=1;align=center;verticalAlign=middle;whiteSpace=wrap;rounded=0;fontSize=16;" vertex="1" parent="1">
          <mxGeometry x="780" y="370" width="160" height="30" as="geometry" />
        </mxCell>
        <mxCell id="alKvm9vHWeU27IcKmRVJ-25" value="SQL QUERY" style="text;strokeColor=none;fillColor=none;html=1;align=center;verticalAlign=middle;whiteSpace=wrap;rounded=0;fontSize=16;" vertex="1" parent="1">
          <mxGeometry x="210" y="-60" width="130" height="30" as="geometry" />
        </mxCell>
        <mxCell id="alKvm9vHWeU27IcKmRVJ-33" value="&lt;font style=&quot;background-color: rgb(82, 29, 255); font-size: 39px;&quot;&gt;LOW LEVEL DESIGN&lt;/font&gt;" style="text;strokeColor=none;fillColor=none;html=1;align=center;verticalAlign=middle;whiteSpace=wrap;rounded=0;fontSize=16;" vertex="1" parent="1">
          <mxGeometry x="200" y="-270" width="460" height="30" as="geometry" />
        </mxCell>
        <mxCell id="alKvm9vHWeU27IcKmRVJ-34" value="&lt;font style=&quot;font-size: 28px; background-color: rgb(94, 155, 255);&quot;&gt;ALTERNATIVE APPROCHS&lt;/font&gt;" style="text;strokeColor=none;fillColor=none;html=1;align=center;verticalAlign=middle;whiteSpace=wrap;rounded=0;fontSize=16;" vertex="1" parent="1">
          <mxGeometry x="210" y="640" width="390" height="30" as="geometry" />
        </mxCell>
        <mxCell id="alKvm9vHWeU27IcKmRVJ-37" value="" style="rounded=0;whiteSpace=wrap;html=1;" vertex="1" parent="1">
          <mxGeometry x="-290" y="690" width="1590" height="690" as="geometry" />
        </mxCell>
        <mxCell id="alKvm9vHWeU27IcKmRVJ-38" value="&lt;font style=&quot;font-size: 23px;&quot;&gt;CSV&lt;/font&gt;" style="rounded=1;whiteSpace=wrap;html=1;" vertex="1" parent="1">
          <mxGeometry x="-170" y="910" width="120" height="130" as="geometry" />
        </mxCell>
        <mxCell id="alKvm9vHWeU27IcKmRVJ-39" value="&lt;font style=&quot;font-size: 27px;&quot;&gt;azure blob container&lt;/font&gt;" style="rounded=1;whiteSpace=wrap;html=1;" vertex="1" parent="1">
          <mxGeometry x="30" y="780" width="200" height="360" as="geometry" />
        </mxCell>
        <mxCell id="alKvm9vHWeU27IcKmRVJ-51" style="edgeStyle=none;curved=1;rounded=0;orthogonalLoop=1;jettySize=auto;html=1;exitX=1;exitY=0.5;exitDx=0;exitDy=0;entryX=0;entryY=0.5;entryDx=0;entryDy=0;fontSize=12;startSize=8;endSize=8;" edge="1" parent="1" source="alKvm9vHWeU27IcKmRVJ-40" target="alKvm9vHWeU27IcKmRVJ-50">
          <mxGeometry relative="1" as="geometry" />
        </mxCell>
        <mxCell id="alKvm9vHWeU27IcKmRVJ-40" value="&lt;span style=&quot;color: rgb(0, 29, 53); font-family: &amp;quot;Google Sans&amp;quot;, Arial, sans-serif; font-size: 18px; text-align: start;&quot;&gt;Azure Queue storage&lt;/span&gt;" style="rounded=1;whiteSpace=wrap;html=1;" vertex="1" parent="1">
          <mxGeometry x="500" y="960" width="150" height="80" as="geometry" />
        </mxCell>
        <mxCell id="alKvm9vHWeU27IcKmRVJ-47" style="edgeStyle=none;curved=1;rounded=0;orthogonalLoop=1;jettySize=auto;html=1;entryX=0.5;entryY=0;entryDx=0;entryDy=0;fontSize=12;startSize=8;endSize=8;" edge="1" parent="1" source="alKvm9vHWeU27IcKmRVJ-41" target="alKvm9vHWeU27IcKmRVJ-46">
          <mxGeometry relative="1" as="geometry" />
        </mxCell>
        <mxCell id="alKvm9vHWeU27IcKmRVJ-49" style="edgeStyle=none;curved=1;rounded=0;orthogonalLoop=1;jettySize=auto;html=1;exitX=1;exitY=0.5;exitDx=0;exitDy=0;fontSize=12;startSize=8;endSize=8;" edge="1" parent="1" source="alKvm9vHWeU27IcKmRVJ-41" target="alKvm9vHWeU27IcKmRVJ-40">
          <mxGeometry relative="1" as="geometry" />
        </mxCell>
        <mxCell id="alKvm9vHWeU27IcKmRVJ-41" value="&lt;font style=&quot;font-size: 20px;&quot;&gt;App funtion&lt;/font&gt;&lt;div&gt;&lt;span style=&quot;font-size: 20px;&quot;&gt;CSV Processing&lt;/span&gt;&lt;/div&gt;" style="shape=hexagon;perimeter=hexagonPerimeter2;whiteSpace=wrap;html=1;fixedSize=1;" vertex="1" parent="1">
          <mxGeometry x="290" y="945" width="120" height="105" as="geometry" />
        </mxCell>
        <mxCell id="alKvm9vHWeU27IcKmRVJ-45" style="edgeStyle=none;curved=1;rounded=0;orthogonalLoop=1;jettySize=auto;html=1;exitX=1;exitY=0.5;exitDx=0;exitDy=0;entryX=0.5;entryY=1;entryDx=0;entryDy=0;fontSize=12;startSize=8;endSize=8;" edge="1" parent="1">
          <mxGeometry relative="1" as="geometry">
            <mxPoint x="110" y="1025" as="sourcePoint" />
            <mxPoint x="290" y="980" as="targetPoint" />
            <Array as="points">
              <mxPoint x="290" y="1085" />
            </Array>
          </mxGeometry>
        </mxCell>
        <mxCell id="alKvm9vHWeU27IcKmRVJ-42" value="&lt;font style=&quot;font-size: 24px;&quot;&gt;event trigger&lt;/font&gt;" style="ellipse;whiteSpace=wrap;html=1;aspect=fixed;" vertex="1" parent="1">
          <mxGeometry x="80" y="1025" width="90" height="90" as="geometry" />
        </mxCell>
        <mxCell id="alKvm9vHWeU27IcKmRVJ-46" value="Database" style="rounded=1;whiteSpace=wrap;html=1;" vertex="1" parent="1">
          <mxGeometry x="290" y="1140" width="110" height="125" as="geometry" />
        </mxCell>
        <mxCell id="alKvm9vHWeU27IcKmRVJ-53" style="edgeStyle=none;curved=1;rounded=0;orthogonalLoop=1;jettySize=auto;html=1;exitX=0;exitY=0.75;exitDx=0;exitDy=0;entryX=1;entryY=0.75;entryDx=0;entryDy=0;fontSize=12;startSize=8;endSize=8;" edge="1" parent="1" source="alKvm9vHWeU27IcKmRVJ-48" target="alKvm9vHWeU27IcKmRVJ-50">
          <mxGeometry relative="1" as="geometry" />
        </mxCell>
        <mxCell id="alKvm9vHWeU27IcKmRVJ-48" value="image processing" style="rounded=1;whiteSpace=wrap;html=1;" vertex="1" parent="1">
          <mxGeometry x="990" y="950" width="140" height="90" as="geometry" />
        </mxCell>
        <mxCell id="alKvm9vHWeU27IcKmRVJ-52" style="edgeStyle=none;curved=1;rounded=0;orthogonalLoop=1;jettySize=auto;html=1;exitX=1;exitY=0.25;exitDx=0;exitDy=0;entryX=0;entryY=0.25;entryDx=0;entryDy=0;fontSize=12;startSize=8;endSize=8;" edge="1" parent="1" source="alKvm9vHWeU27IcKmRVJ-50" target="alKvm9vHWeU27IcKmRVJ-48">
          <mxGeometry relative="1" as="geometry" />
        </mxCell>
        <mxCell id="alKvm9vHWeU27IcKmRVJ-54" style="edgeStyle=none;curved=1;rounded=0;orthogonalLoop=1;jettySize=auto;html=1;exitX=0.5;exitY=1;exitDx=0;exitDy=0;entryX=1;entryY=0.5;entryDx=0;entryDy=0;fontSize=12;startSize=8;endSize=8;" edge="1" parent="1" source="alKvm9vHWeU27IcKmRVJ-50" target="alKvm9vHWeU27IcKmRVJ-46">
          <mxGeometry relative="1" as="geometry" />
        </mxCell>
        <mxCell id="alKvm9vHWeU27IcKmRVJ-50" value="URL EXTRACTION" style="rounded=1;whiteSpace=wrap;html=1;" vertex="1" parent="1">
          <mxGeometry x="700" y="955" width="140" height="90" as="geometry" />
        </mxCell>
        <mxCell id="alKvm9vHWeU27IcKmRVJ-55" style="edgeStyle=none;curved=1;rounded=0;orthogonalLoop=1;jettySize=auto;html=1;exitX=1;exitY=0.5;exitDx=0;exitDy=0;entryX=0.03;entryY=0.545;entryDx=0;entryDy=0;entryPerimeter=0;fontSize=12;startSize=8;endSize=8;" edge="1" parent="1" source="alKvm9vHWeU27IcKmRVJ-38" target="alKvm9vHWeU27IcKmRVJ-39">
          <mxGeometry relative="1" as="geometry" />
        </mxCell>
        <mxCell id="alKvm9vHWeU27IcKmRVJ-56" value="Data" style="text;strokeColor=none;fillColor=none;html=1;align=center;verticalAlign=middle;whiteSpace=wrap;rounded=0;fontSize=16;" vertex="1" parent="1">
          <mxGeometry x="330" y="180" width="60" height="30" as="geometry" />
        </mxCell>
      </root>
    </mxGraphModel>
  </diagram>
</mxfile>
